Coordinates
version=1
nRows=11
nColumns=40
inDegrees=yes

Units are S.I. units (second, meters, Newtons, ...)
Angles are in degrees.

endheader
time	pelvis_tilt	pelvis_list	pelvis_rotation	pelvis_tx	pelvis_ty	pelvis_tz	hip_flexion_r	hip_adduction_r	hip_rotation_r	knee_angle_r	knee_angle_r_beta	ankle_angle_r	subtalar_angle_r	mtp_angle_r	hip_flexion_l	hip_adduction_l	hip_rotation_l	knee_angle_l	knee_angle_l_beta	ankle_angle_l	subtalar_angle_l	mtp_angle_l	lumbar_extension	lumbar_bending	lumbar_rotation	arm_flex_r	arm_add_r	arm_rot_r	elbow_flex_r	pro_sup_r	wrist_flex_r	wrist_dev_r	arm_flex_l	arm_add_l	arm_rot_l	elbow_flex_l	pro_sup_l	wrist_flex_l	wrist_dev_l
      0.32000000	     -0.39244032	      7.82886238	     -6.14879410	     -0.28884675	      0.92649832	     -1.03254582	    -15.10470864	    -14.34987052	    -20.33398084	    -23.68547133	     -0.41338946	      5.26673251	     12.84907410	    -16.56983052	     23.19961122	     -1.09565749	     17.61037016	    -12.90812739	     -0.22528932	     -5.93708389	      3.31586375	      6.13970050	     -1.28413645	     -7.84381156	     11.68363084	      6.49385753	    -13.75478707	    -11.73488575	     42.68535063	     89.95437384	      0.00000000	      0.00000000	    -21.24586154	      6.68709540	     -7.98041186	      8.68380218	     89.95437384	      0.00000000	      0.00000000
      0.33000000	     -0.27275044	      8.04389300	     -5.96489459	     -0.27296807	      0.92716901	     -1.03667703	    -14.88574514	    -15.37891297	    -20.42386823	    -25.89664297	     -0.45198169	      2.60385083	     12.15366887	    -15.64299472	     22.99965282	     -1.57676912	     16.26798056	    -14.05840909	     -0.24536553	     -6.43583369	      2.75563951	      5.72350073	     -1.00995462	     -7.93286057	     11.22541334	      6.21370800	    -13.64176823	    -12.06128400	     42.10408304	     89.95437384	      0.00000000	      0.00000000	    -20.98742529	      6.55812121	     -8.43474844	      8.23361328	     89.95437384	      0.00000000	      0.00000000
      0.34000000	     -0.22930575	      8.48922241	     -5.57187026	     -0.25682984	      0.92786276	     -1.04152247	    -14.36537181	    -16.69483527	    -20.77803159	    -28.48031959	     -0.49707535	     -0.62752051	     11.28729741	    -14.46220165	     23.29391214	     -2.22349035	     15.55084951	    -16.48112638	     -0.28764992	     -6.19941860	      3.07615395	      5.06747698	     -0.64895995	     -8.24323442	     10.66539234	      5.66018993	    -13.44175372	    -12.66799287	     41.77083295	     89.95437384	      0.00000000	      0.00000000	    -20.72091479	      6.49640547	     -9.01851341	      8.04246963	     89.95437384	      0.00000000	      0.00000000
      0.35000000	     -1.16130181	      9.10757734	     -4.94996749	     -0.24165704	      0.92731788	     -1.04692082	    -12.24248509	    -18.20447000	    -20.80875642	    -31.83662845	     -0.55565399	     -3.93053040	     10.87938852	    -13.08271977	     24.77538228	     -3.32793716	     14.16704385	    -18.95864527	     -0.33089078	     -5.31940310	      5.98487479	      3.53167408	      0.76772257	     -8.63019886	     10.16728173	      5.00757397	    -13.13455441	    -13.63455517	     41.09204385	     89.95437384	      0.00000000	      0.00000000	    -20.46833067	      6.66844791	    -10.42867025	      8.10532161	     89.95437384	      0.00000000	      0.00000000
      0.36000000	     -1.50097523	      9.35102081	     -4.41035919	     -0.22633011	      0.92790022	     -1.05142479	    -10.78949408	    -19.04529442	    -20.30778907	    -34.59670090	     -0.60382634	     -8.59532195	      9.18788302	    -11.59087431	     25.13856729	     -4.04239372	     13.42239903	    -20.59130448	     -0.35938606	     -4.87288249	      6.27153425	      2.93335060	      1.41675614	     -8.74660002	      9.51599153	      4.44957652	    -12.93035847	    -14.15813667	     40.50023540	     89.95437384	      0.00000000	      0.00000000	    -20.02013537	      6.69440883	    -10.86773846	      8.15265253	     89.95437384	      0.00000000	      0.00000000
      0.37000000	     -2.27013458	      9.58363406	     -3.84857623	     -0.21217017	      0.92802243	     -1.05564606	     -8.35055880	    -19.60936062	    -18.87420817	    -37.94701636	     -0.66230038	    -12.23776714	      6.08346950	    -10.05121885	     25.61095610	     -4.94839263	     12.12027968	    -21.39767405	     -0.37345986	     -4.57293505	      7.30649783	      2.20444064	      2.42103791	     -8.87156051	      8.94878776	      3.85826449	    -12.56057747	    -15.04138191	     39.87293703	     89.95437384	      0.00000000	      0.00000000	    -19.44228973	      6.85733040	    -11.31183793	      8.42562495	     89.95437384	      0.00000000	      0.00000000
      0.38000000	     -2.62795144	      9.86824846	     -3.44904889	     -0.19780133	      0.92877588	     -1.05942421	     -6.23551124	    -20.24334868	    -17.46808095	    -41.30405254	     -0.72089171	    -14.82636731	      4.06148286	     -9.04288488	     25.38806602	     -5.82908594	     11.30912118	    -21.97136383	     -0.38347264	     -3.64137756	      8.27067677	      1.56692698	      2.96424526	     -9.09403494	      8.38224266	      3.41205859	    -12.26667403	    -15.65914444	     39.10865799	     89.95437384	      0.00000000	      0.00000000	    -18.74841630	      6.99609831	    -11.33321170	      8.66464820	     89.95437384	      0.00000000	      0.00000000
      0.39000000	     -3.03427805	     10.19643032	     -3.06293286	     -0.18390289	      0.92949929	     -1.06283932	     -3.88110612	    -20.81076184	    -16.07461170	    -44.89533043	     -0.78357133	    -16.20514766	      1.56339763	     -8.19720483	     25.07707817	     -6.82678841	     10.27490503	    -22.23615641	     -0.38809414	     -2.95243606	     10.07453246	      0.94883297	      3.47544356	     -9.41172942	      7.71530819	      3.08232214	    -11.97785217	    -15.89583197	     38.23665431	     89.95437384	      0.00000000	      0.00000000	    -17.99397989	      7.17231949	    -10.59833548	      9.05863942	     89.95437384	      0.00000000	      0.00000000
      0.40000000	     -3.10574517	     10.69993331	     -2.81614796	     -0.17000102	      0.93077180	     -1.06576838	     -1.75516155	    -21.63026125	    -15.10482010	    -48.41717216	     -0.84503907	    -17.06648131	     -1.90126851	     -7.62140116	     24.17363941	     -7.94267788	      9.47964894	    -22.11341891	     -0.38595197	     -2.13027926	     10.67135382	      0.56745995	      3.58729243	     -9.96425448	      7.14693662	      2.75233253	    -11.64445492	    -16.17072412	     37.37697542	     89.95437384	      0.00000000	      0.00000000	    -17.16639291	      7.44434426	     -9.92409048	      9.68289716	     89.95437384	      0.00000000	      0.00000000
      0.41000000	     -3.09866021	     11.27015529	     -2.58262848	     -0.15633602	      0.93230688	     -1.06859285	      0.32344878	    -22.54541154	    -14.56764950	    -51.75626198	     -0.90331718	    -17.20776532	     -6.24448014	     -6.87385711	     23.01230243	     -9.12782100	      8.74730685	    -21.64663924	     -0.37780513	     -1.38630741	     11.59126070	      0.35099844	      3.59044836	    -10.59397064	      6.49586096	      2.52329614	    -11.29124712	    -16.36429456	     36.38622264	     89.95437384	      0.00000000	      0.00000000	    -16.29029705	      7.73281884	     -9.20101604	     10.36220365	     89.95437384	      0.00000000	      0.00000000
      0.42000000	     -2.96028100	     11.79786217	     -2.43761754	     -0.14304710	      0.93429090	     -1.07115221	      2.30039941	    -23.42543606	    -14.27311620	    -54.81551965	     -0.95671130	    -16.69329141	    -10.31061711	     -5.80913698	     21.59954408	    -10.19249384	      8.10097160	    -20.95528339	     -0.36573869	     -0.76922598	     12.19872847	      0.25012072	      3.37653630	    -11.17260413	      5.83627046	      2.40854963	    -10.90759922	    -16.64831716	     35.25615531	     89.95437384	      0.00000000	      0.00000000	    -15.30230537	      8.02582979	     -8.31809184	     11.10025343	     89.95437384	      0.00000000	      0.00000000
